<?xml version="1.0" encoding="UTF-8"?>
<svg width="19px" height="20px" viewBox="0 0 19 20" version="1.1" xmlns="http://www.w3.org/2000/svg" xmlns:xlink="http://www.w3.org/1999/xlink">
    <title>icon2扩展_书架 pre</title>
    <g id="页面-1" stroke="none" stroke-width="1" fill="none" fill-rule="evenodd">
        <g id="书架" transform="translate(-24, -285)" fill-rule="nonzero">
            <g id="icon2扩展_书架-pre" transform="translate(24, 285)">
                <path d="M17.8184084,5.31040744 L14.2736315,5.31040744 C13.611939,5.31040744 13.0920399,5.84669374 13.0920399,6.47624808 L13.0920399,2.97872396 C13.0920399,2.32585206 12.5485082,1.81288332 11.9104483,1.81288332 L8.36567138,1.81288332 C7.70397894,1.81288332 7.1840798,2.34916962 7.1840798,2.97872396 L7.1840798,8.57476256 C7.1840798,7.92189066 6.64054807,7.40892191 6.00248822,7.40892191 L2.45771128,7.40892191 C1.79601884,7.40892191 1.2761197,7.94520821 1.2761197,8.57476256 L1.2761197,18.8341594 C1.2761197,19.4870313 1.81965143,20 2.45771128,20 L6.00248822,20 C6.66418066,20 7.1840798,19.4637137 7.1840798,18.8341594 C7.1840798,19.4870313 7.72761153,20 8.36567138,20 L11.9104483,20 C12.5721408,20 13.0920399,19.4637137 13.0920399,18.8341594 C13.0920399,19.4870313 13.6355716,20 14.2736315,20 L17.8184084,20 C18.4801009,20 19,19.4637137 19,18.8341594 L19,6.47624808 C19,5.84669374 18.4800986,5.31040744 17.8184084,5.31040744 Z" id="路径" fill-opacity="0.498762224" fill="#33B4A9"></path>
                <path d="M16.8967664,4.00467239 L13.3519895,4.00467239 C13.0447747,4.00467239 12.7611926,4.09793977 12.5248756,4.23784139 L12.5248756,2.02275007 C12.5248756,1.18334428 11.8395528,0.50715701 10.9888063,0.50715701 L7.44402937,0.50715701 C6.5932829,0.50715701 5.9079601,1.18334428 5.9079601,2.02275007 L5.9079601,6.33635586 C5.6716409,6.173138 5.38805874,6.10318686 5.08084622,6.10318686 L1.53606927,6.10318686 C0.685322804,6.10318686 0,6.77937413 0,7.61877992 L0,17.8781767 C0,18.7175825 0.685322804,19.3937698 1.53606927,19.3937698 L5.08084622,19.3937698 C5.55348241,19.3937698 5.97885564,19.1839183 6.26243779,18.8341659 C6.54601995,19.1606008 6.97139318,19.3937698 7.44402937,19.3937698 L10.9888063,19.3937698 C11.4614425,19.3937698 11.8868157,19.1839183 12.1703979,18.8341659 C12.45398,19.1606008 12.8793533,19.3937698 13.3519895,19.3937698 L16.8967664,19.3937698 C17.7475129,19.3937698 18.4328357,18.7175825 18.4328357,17.8781767 L18.4328357,5.52026544 C18.4328357,4.70417721 17.7475129,4.00467239 16.8967664,4.00467239 Z M5.08085065,18.6942737 L1.5360737,18.6942737 C1.08706788,18.6942737 0.70895982,18.3212037 0.70895982,17.8781855 L0.70895982,7.61878866 C0.70895982,7.17576821 1.0870701,6.80270043 1.5360737,6.80270043 L5.08085065,6.80270043 C5.52985647,6.80270043 5.90796453,7.17577039 5.90796453,7.61878866 L5.90796453,17.8781855 C5.90796453,18.3445213 5.55348684,18.6942737 5.08085065,18.6942737 Z M10.9888196,18.6942737 L7.44404266,18.6942737 C6.99503685,18.6942737 6.61692878,18.3212037 6.61692878,17.8781855 L6.61692878,2.02275007 C6.61692878,1.57972962 6.99503906,1.20666183 7.44404266,1.20666183 L10.9888196,1.20666183 C11.4378254,1.20666183 11.8159335,1.5797318 11.8159335,2.02275007 L11.8159335,17.8781855 C11.8159335,18.3445213 11.4614558,18.6942737 10.9888196,18.6942737 Z M17.7238958,17.8781855 C17.7238958,18.3212059 17.3457855,18.6942737 16.8967819,18.6942737 L13.352005,18.6942737 C12.9029992,18.6942737 12.5248911,18.3212037 12.5248911,17.8781855 L12.5248911,5.52027419 C12.5248911,5.07725374 12.9030014,4.70418595 13.352005,4.70418595 L16.8967819,4.70418595 C17.3457877,4.70418595 17.7238958,5.07725592 17.7238958,5.52027419 L17.7238958,17.8781855 Z" id="形状" fill="#32B2A7"></path>
                <path d="M4.60819895,17.7654481 L1.7723774,17.7654481 C1.5833227,17.7654481 1.4178997,17.6013308 1.4178997,17.4137683 C1.4178997,17.2262058 1.5833227,17.0620885 1.7723774,17.0620885 L4.60819895,17.0620885 C4.79725365,17.0620885 4.96267665,17.2262058 4.96267665,17.4137683 C4.96267665,17.6013308 4.82088557,17.7654481 4.60819895,17.7654481 Z M10.6343198,17.7654481 L7.7984982,17.7654481 C7.60944351,17.7654481 7.44402051,17.6013308 7.44402051,17.4137683 C7.44402051,17.2262058 7.60944351,17.0620885 7.7984982,17.0620885 L10.6343198,17.0620885 C10.8233745,17.0620885 10.9887975,17.2262058 10.9887975,17.4137683 C10.9887975,17.6013308 10.8470064,17.7654481 10.6343198,17.7654481 Z M16.5422887,17.7654481 L13.7064672,17.7654481 C13.5174125,17.7654481 13.3519895,17.6013308 13.3519895,17.4137683 C13.3519895,17.2262058 13.5174125,17.0620885 13.7064672,17.0620885 L16.5422887,17.0620885 C16.7313434,17.0620885 16.8967664,17.2262058 16.8967664,17.4137683 C16.8967664,17.6013308 16.7549753,17.7654481 16.5422887,17.7654481 Z" id="形状" fill="#FFFFFF"></path>
                <path d="M1.46517816,4.75080358 L1.46517816,4.7508035 C1.46517816,5.09849674 1.75084731,5.38035784 2.10323801,5.38035784 C2.45562872,5.38035784 2.74129786,5.09849674 2.74129786,4.7508035 C2.74129786,4.75080349 2.74129786,4.75080348 2.74129786,4.75080347 L2.74129786,4.75080346 C2.74129786,4.40311022 2.45562872,4.12124912 2.10323801,4.12124912 C1.75084731,4.12124912 1.46517816,4.40311022 1.46517816,4.75080346 C1.46517816,4.75080347 1.46517816,4.75080348 1.46517816,4.75080348 L1.46517816,4.75080358 Z" id="路径" fill-opacity="0.501493867" fill="#33B4A9"></path>
                <path d="M17.0621967,3.02536563 L17.0621967,3.02536562 C17.0621967,3.08975329 17.1150983,3.14194969 17.1803559,3.14194969 C17.2456135,3.14194969 17.298515,3.08975329 17.298515,3.02536562 C17.298515,3.02536562 17.298515,3.02536561 17.298515,3.02536561 L17.298515,3.0253656 C17.298515,2.96097793 17.2456135,2.90878153 17.1803559,2.90878153 C17.1150983,2.90878153 17.0621967,2.96097793 17.0621967,3.0253656 C17.0621967,3.0253656 17.0621967,3.02536561 17.0621967,3.02536561 L17.0621967,3.02536563 Z" id="路径" fill="#71BCFF"></path>
                <path d="M17.7002566,1.74293284 L17.7002566,1.74293279 C17.7002566,1.96185157 17.8801223,2.13931812 18.1019972,2.13931812 C18.3238737,2.13931812 18.5037379,1.96185003 18.5037379,1.74293279 C18.5037379,1.74293278 18.5037379,1.74293277 18.5037379,1.74293276 L18.5037379,1.74293275 C18.5037379,1.52401397 18.3238721,1.34654741 18.1019972,1.34654741 C17.8801208,1.34654741 17.7002566,1.5240155 17.7002566,1.74293275 C17.7002566,1.74293276 17.7002566,1.74293277 17.7002566,1.74293278 L17.7002566,1.74293284 Z" id="路径" fill-opacity="0.501493867" fill="#33B4A9"></path>
                <path d="M4.3246168,2.93209104 C4.30098488,2.90877414 4.27735318,2.90877414 4.27735318,2.93209104 L4.1355621,3.0953089 L3.99377102,2.93209104 C3.9701391,2.90877414 3.9465074,2.90877414 3.9465074,2.93209104 C3.92287548,2.95540794 3.92287548,2.97872462 3.9465074,3.00204152 L4.08829848,3.16525938 L3.9465074,3.32847725 C3.92287548,3.35179415 3.92287548,3.37511083 3.9465074,3.39842773 C3.97013932,3.42174463 3.99377102,3.42174463 3.99377102,3.39842773 L4.1355621,3.23520987 L4.27735318,3.39842773 C4.3009851,3.42174463 4.3246168,3.42174463 4.3246168,3.39842773 C4.34824872,3.37511083 4.34824872,3.35179415 4.3246168,3.32847725 L4.18282572,3.16525938 L4.3246168,3.00204152 C4.34824872,2.97872462 4.34824872,2.95540794 4.3246168,2.93209104 Z M14.3208878,0.413873669 L14.6044699,0.13407174 C14.6281019,0.110754839 14.6281019,0.0641212573 14.6044699,0.0174876753 C14.580838,-0.00582922508 14.5335744,-0.00582922508 14.4863108,0.0174876753 L14.2027286,0.297289605 L13.9191465,0.0174876753 C13.8955146,-0.00582922508 13.8482509,-0.00582922508 13.8009873,0.0174876753 C13.7773554,0.0408045756 13.7773554,0.0874381577 13.8009873,0.13407174 L14.0845695,0.413873669 L13.8009873,0.693675599 C13.7773554,0.716992499 13.7773554,0.763626081 13.8009873,0.810259663 C13.8246192,0.833576564 13.8718829,0.833576564 13.9191465,0.810259663 L14.2027286,0.530457734 L14.4863108,0.810259663 C14.5099427,0.833576564 14.5572063,0.833576564 14.6044699,0.810259663 C14.6281019,0.786942763 14.6281019,0.740309181 14.6044699,0.693675599 L14.3208878,0.413873669 Z" id="形状" fill-opacity="0.501493867" fill="#33B4A9"></path>
            </g>
        </g>
    </g>
</svg>